<svg width="330" height="104" viewBox="0 0 330 104" fill="none" xmlns="http://www.w3.org/2000/svg">
<path d="M99.8398 7.82227C99.7578 6.97461 99.0332 6.48242 97.9668 6.48242C96.8457 6.48242 96.1621 7.0293 96.1621 7.76758C96.1621 8.60156 97.0371 8.94336 97.8574 9.13477L98.7871 9.38086C100.264 9.72266 101.686 10.502 101.686 12.2246C101.686 13.9609 100.318 15.1504 97.9395 15.1504C95.6289 15.1504 94.1797 14.043 94.0977 12.0879H95.8477C95.9297 13.127 96.8047 13.6328 97.9258 13.6328C99.1016 13.6328 99.9082 13.0586 99.9082 12.2109C99.9082 11.4316 99.1836 11.1035 98.1172 10.8301L96.9961 10.543C95.3691 10.1191 94.3574 9.29883 94.3574 7.87695C94.3574 6.12695 95.916 4.96484 97.9941 4.96484C100.1 4.96484 101.521 6.1543 101.549 7.82227H99.8398ZM111.297 5.10156V15H109.711L105.021 8.23242H104.939V15H103.162V5.10156H104.775L109.438 11.8691H109.533V5.10156H111.297ZM118.516 7.82227C118.434 6.97461 117.709 6.48242 116.643 6.48242C115.521 6.48242 114.838 7.0293 114.838 7.76758C114.838 8.60156 115.713 8.94336 116.533 9.13477L117.463 9.38086C118.939 9.72266 120.361 10.502 120.361 12.2246C120.361 13.9609 118.994 15.1504 116.615 15.1504C114.305 15.1504 112.855 14.043 112.773 12.0879H114.523C114.605 13.127 115.48 13.6328 116.602 13.6328C117.777 13.6328 118.584 13.0586 118.584 12.2109C118.584 11.4316 117.859 11.1035 116.793 10.8301L115.672 10.543C114.045 10.1191 113.033 9.29883 113.033 7.87695C113.033 6.12695 114.592 4.96484 116.67 4.96484C118.775 4.96484 120.197 6.1543 120.225 7.82227H118.516ZM135.318 3.85742V16.2168H133.869V3.85742H135.318ZM132.762 4.1582V15.6289H131.312V11.5H129.385V10.2559H131.312V8.42383H129.604C129.022 10.4746 127.73 12.2383 125.42 13.6055L124.531 12.5254C127.095 11.0146 128.271 9.08008 128.496 6.5918H125.188V5.36133H130C130 5.9834 129.959 6.5918 129.877 7.17969H131.312V4.1582H132.762ZM147.104 3.85742V11.1992H145.586V8.17773H143.48V6.93359H145.586V3.85742H147.104ZM142.92 11.5137C145.545 11.5137 147.145 12.375 147.145 13.8652C147.145 15.3555 145.545 16.2168 142.92 16.2168C140.309 16.2168 138.709 15.3555 138.723 13.8652C138.709 12.375 140.309 11.5137 142.92 11.5137ZM142.92 12.6758C141.197 12.6758 140.227 13.0859 140.227 13.8652C140.227 14.6309 141.197 15.041 142.92 15.041C144.643 15.041 145.627 14.6309 145.627 13.8652C145.627 13.0859 144.643 12.6758 142.92 12.6758ZM141.293 5.97656C141.293 7.48047 142.291 8.99805 144.205 9.64062L143.439 10.8438C142.065 10.3789 141.088 9.43555 140.555 8.27344C140.008 9.59277 138.976 10.6455 137.506 11.1719L136.713 9.96875C138.695 9.28516 139.748 7.61719 139.748 5.99023V5.89453H137.178V4.66406H143.85V5.89453H141.293V5.97656ZM154.473 4.55469C157.084 4.55469 159.08 5.93555 159.08 8.04102C159.08 10.1738 157.084 11.5547 154.473 11.5547C151.875 11.5547 149.879 10.1738 149.893 8.04102C149.879 5.93555 151.875 4.55469 154.473 4.55469ZM154.473 5.78516C152.682 5.77148 151.355 6.67383 151.355 8.04102C151.355 9.43555 152.682 10.3105 154.473 10.3105C156.277 10.3105 157.59 9.43555 157.59 8.04102C157.59 6.67383 156.277 5.77148 154.473 5.78516ZM160.146 13.4141V14.6582H148.854V13.4141H160.146ZM172.246 13.5234V14.7812H160.953V13.5234H165.82V11.5137H162.293V7.4668H169.402V5.93555H162.266V4.70508H170.906V8.66992H163.811V10.2695H171.193V11.5137H167.324V13.5234H172.246ZM187.668 13.5234V14.7812H176.375V13.5234H181.242V11.5137H177.715V7.4668H184.824V5.93555H177.688V4.70508H186.328V8.66992H179.232V10.2695H186.615V11.5137H182.746V13.5234H187.668ZM198.305 5.06055V6.45508C198.305 8.10938 198.305 9.81836 197.854 12.416L196.309 12.2793C196.787 9.8457 196.787 8.05469 196.787 6.45508V6.29102H189.664V5.06055H198.305ZM199.74 13.2773V14.5215H188.475V13.2773H199.74ZM210.869 3.87109V12.7988H209.338V3.87109H210.869ZM211.211 14.7402V15.9707H202.693V11.8965H204.225V14.7402H211.211ZM204.129 4.67773C206.002 4.67773 207.451 5.97656 207.451 7.76758C207.451 9.59961 206.002 10.8711 204.129 10.8711C202.242 10.8711 200.793 9.59961 200.793 7.76758C200.793 5.97656 202.242 4.67773 204.129 4.67773ZM204.129 6.00391C203.076 6.00391 202.27 6.70117 202.283 7.76758C202.27 8.86133 203.076 9.54492 204.129 9.54492C205.154 9.54492 205.961 8.86133 205.961 7.76758C205.961 6.70117 205.154 6.00391 204.129 6.00391ZM222.354 3.85742V8.7793H224.254V10.0371H222.354V16.2168H220.85V3.85742H222.354ZM219.893 5.75781V6.97461H212.605V5.75781H215.531V4.03516H217.049V5.75781H219.893ZM216.297 7.78125C218.074 7.78125 219.4 8.98438 219.4 10.6934C219.4 12.4023 218.074 13.5918 216.297 13.5918C214.492 13.5918 213.166 12.4023 213.18 10.6934C213.166 8.98438 214.492 7.78125 216.297 7.78125ZM216.297 9.02539C215.326 9.02539 214.629 9.68164 214.629 10.6934C214.629 11.7051 215.326 12.3477 216.297 12.334C217.24 12.3477 217.938 11.7051 217.951 10.6934C217.938 9.68164 217.24 9.02539 216.297 9.02539ZM235.096 3.85742V16.2168H233.564V3.85742H235.096ZM231.404 5.16992C231.404 8.84766 229.982 11.9785 225.648 14.0293L224.855 12.8125C228.089 11.2744 229.593 9.18262 229.859 6.37305H225.484V5.16992H231.404Z" fill="#70C4DE"/>
<rect x="12" y="50" width="54" height="54" rx="27" fill="#FEE32D"/>
<path d="M39 68C44.8 68 49.501 71.664 49.501 76.185C49.501 80.705 44.8 84.369 39.001 84.369C38.4236 84.368 37.8468 84.3312 37.274 84.259L32.866 87.142C32.365 87.407 32.188 87.378 32.394 86.729L33.286 83.051C30.406 81.591 28.501 79.061 28.501 76.185C28.501 71.665 33.201 68 39.001 68M44.909 76.06L46.379 74.636C46.4638 74.5479 46.5111 74.4303 46.511 74.308C46.5108 74.1858 46.4632 74.0683 46.3782 73.9804C46.2931 73.8925 46.1773 73.8411 46.0551 73.8369C45.9329 73.8327 45.8138 73.8761 45.723 73.958L43.795 75.824V74.282C43.795 74.1568 43.7452 74.0368 43.6567 73.9482C43.5682 73.8597 43.4482 73.81 43.323 73.81C43.1978 73.81 43.0777 73.8597 42.9892 73.9482C42.9007 74.0368 42.851 74.1568 42.851 74.282V76.839C42.8343 76.9121 42.8343 76.9879 42.851 77.061V78.5C42.851 78.6252 42.9007 78.7452 42.9892 78.8338C43.0777 78.9223 43.1978 78.972 43.323 78.972C43.4482 78.972 43.5682 78.9223 43.6567 78.8338C43.7452 78.7452 43.795 78.6252 43.795 78.5V77.137L44.222 76.724L45.65 78.757C45.6856 78.8078 45.7309 78.851 45.7833 78.8842C45.8357 78.9175 45.8941 78.9401 45.9552 78.9508C46.0163 78.9615 46.0789 78.96 46.1394 78.9465C46.1999 78.933 46.2572 78.9077 46.308 78.872C46.3587 78.8363 46.402 78.791 46.4352 78.7387C46.4685 78.6863 46.4911 78.6279 46.5018 78.5668C46.5124 78.5057 46.511 78.4431 46.4975 78.3826C46.4839 78.322 46.4586 78.2648 46.423 78.214L44.909 76.06ZM41.951 77.984H40.491V74.297C40.4854 74.1757 40.4333 74.0612 40.3455 73.9774C40.2576 73.8935 40.1409 73.8467 40.0195 73.8467C39.8981 73.8467 39.7813 73.8935 39.6935 73.9774C39.6057 74.0612 39.5536 74.1757 39.548 74.297V78.456C39.548 78.716 39.758 78.928 40.019 78.928H41.951C42.0762 78.928 42.1962 78.8783 42.2847 78.7898C42.3732 78.7012 42.423 78.5812 42.423 78.456C42.423 78.3308 42.3732 78.2108 42.2847 78.1222C42.1962 78.0337 42.0762 77.984 41.951 77.984ZM36.094 76.893L36.79 75.185L37.428 76.892L36.094 76.893ZM38.617 77.38L38.619 77.364C38.6186 77.2451 38.5733 77.1308 38.492 77.044L37.446 74.244C37.4021 74.1106 37.3186 73.9937 37.2066 73.909C37.0945 73.8243 36.9593 73.7758 36.819 73.77C36.6777 73.7699 36.5398 73.8126 36.4233 73.8924C36.3067 73.9721 36.217 74.0853 36.166 74.217L34.504 78.292C34.4566 78.4079 34.4573 78.5379 34.5058 78.6533C34.5542 78.7687 34.6466 78.8602 34.7625 78.9075C34.8784 78.9548 35.0083 78.9542 35.1238 78.9057C35.2392 78.8572 35.3306 78.7649 35.378 78.649L35.71 77.836H37.78L38.078 78.636C38.0983 78.6958 38.1304 78.7509 38.1724 78.7981C38.2145 78.8452 38.2655 78.8835 38.3226 78.9105C38.3796 78.9376 38.4416 78.9529 38.5047 78.9557C38.5678 78.9584 38.6308 78.9484 38.6899 78.9263C38.7491 78.9042 38.8032 78.8704 38.8491 78.8271C38.895 78.7837 38.9317 78.7315 38.9571 78.6737C38.9825 78.6158 38.996 78.5535 38.9968 78.4903C38.9977 78.4272 38.9858 78.3645 38.962 78.306L38.617 77.38ZM35.294 74.302C35.2942 74.24 35.2822 74.1786 35.2587 74.1213C35.2351 74.064 35.2004 74.0119 35.1567 73.968C35.1129 73.9241 35.0609 73.8894 35.0036 73.8657C34.9463 73.842 34.885 73.8299 34.823 73.83H31.578C31.4528 73.83 31.3327 73.8797 31.2442 73.9682C31.1557 74.0568 31.106 74.1768 31.106 74.302C31.106 74.4272 31.1557 74.5472 31.2442 74.6358C31.3327 74.7243 31.4528 74.774 31.578 74.774H32.738V78.51C32.738 78.6352 32.7877 78.7552 32.8762 78.8438C32.9647 78.9323 33.0848 78.982 33.21 78.982C33.3352 78.982 33.4552 78.9323 33.5437 78.8438C33.6322 78.7552 33.682 78.6352 33.682 78.51V74.774H34.822C34.884 74.7743 34.9455 74.7622 35.0029 74.7386C35.0603 74.715 35.1124 74.6802 35.1563 74.6363C35.2002 74.5925 35.235 74.5403 35.2586 74.4829C35.2822 74.4256 35.2942 74.3641 35.294 74.302Z" fill="#3C1E1E"/>
<rect x="96" y="50" width="54" height="54" rx="27" fill="#5AC451"/>
<path d="M126.205 77.6337L119.532 68H114V86H119.794V76.367L126.468 86H132V68H126.205V77.6337Z" fill="white"/>
<rect x="180.5" y="50.5" width="53" height="53" rx="26.5" fill="white"/>
<rect x="180.5" y="50.5" width="53" height="53" rx="26.5" stroke="#CCCCCC"/>
<path d="M216.806 75.0415H216V75H207V79H212.652C211.827 81.3285 209.611 83 207 83C203.687 83 201 80.3135 201 77C201 73.6865 203.687 71 207 71C208.53 71 209.921 71.577 210.981 72.5195L213.809 69.691C212.023 68.0265 209.634 67 207 67C201.477 67 197 71.4775 197 77C197 82.5225 201.477 87 207 87C212.523 87 217 82.5225 217 77C217 76.3295 216.931 75.675 216.806 75.0415Z" fill="#FFC107"/>
<path d="M198.153 72.3455L201.439 74.755C202.328 72.554 204.481 71 207 71C208.53 71 209.921 71.577 210.981 72.5195L213.809 69.691C212.023 68.0265 209.634 67 207 67C203.159 67 199.828 69.1685 198.153 72.3455Z" fill="#FF3D00"/>
<path d="M207 87C209.583 87 211.93 86.0115 213.704 84.404L210.609 81.785C209.572 82.5745 208.304 83.0014 207 83C204.399 83 202.19 81.3415 201.358 79.027L198.097 81.5395C199.752 84.778 203.113 87 207 87Z" fill="#4CAF50"/>
<path d="M216.806 75.0415H216V75H207V79H212.652C212.257 80.1082 211.547 81.0766 210.608 81.7855L210.609 81.7845L213.705 84.4035C213.486 84.6025 217 82 217 77C217 76.3295 216.931 75.675 216.806 75.0415Z" fill="#1976D2"/>
<rect x="264" y="50" width="54" height="54" rx="27" fill="black"/>
<path d="M296.05 85.28C295.07 86.23 294 86.08 292.97 85.63C291.88 85.17 290.88 85.15 289.73 85.63C288.29 86.25 287.53 86.07 286.67 85.28C281.79 80.25 282.51 72.59 288.05 72.31C289.4 72.38 290.34 73.05 291.13 73.11C292.31 72.87 293.44 72.18 294.7 72.27C296.21 72.39 297.35 72.99 298.1 74.07C294.98 75.94 295.72 80.05 298.58 81.2C298.01 82.7 297.27 84.19 296.04 85.29L296.05 85.28ZM291.03 72.25C290.88 70.02 292.69 68.18 294.77 68C295.06 70.58 292.43 72.5 291.03 72.25Z" fill="white"/>
</svg>
