<svg width="40" height="40" viewBox="0 0 40 40" fill="none" xmlns="http://www.w3.org/2000/svg">
<g clip-path="url(#clip0_35_367)">
<path fill-rule="evenodd" clip-rule="evenodd" d="M22.4501 9.11667C22.6845 8.88258 23.0022 8.7511 23.3334 8.7511C23.6647 8.7511 23.9824 8.88258 24.2167 9.11667L34.2168 19.1167C34.4508 19.351 34.5823 19.6687 34.5823 20C34.5823 20.3312 34.4508 20.649 34.2168 20.8833L24.2167 30.8833C24.1023 31.0061 23.9643 31.1046 23.811 31.173C23.6576 31.2413 23.4921 31.278 23.3243 31.281C23.1564 31.2839 22.9897 31.2531 22.8341 31.1902C22.6784 31.1273 22.5371 31.0338 22.4184 30.9151C22.2997 30.7964 22.2061 30.655 22.1432 30.4993C22.0803 30.3437 22.0495 30.177 22.0524 30.0091C22.0554 29.8413 22.0921 29.6758 22.1604 29.5224C22.2288 29.3691 22.3273 29.2311 22.4501 29.1167L30.3167 21.25H6.66675C6.33523 21.25 6.01728 21.1183 5.78286 20.8839C5.54844 20.6495 5.41675 20.3315 5.41675 20C5.41675 19.6685 5.54844 19.3505 5.78286 19.1161C6.01728 18.8817 6.33523 18.75 6.66675 18.75H30.3167L22.4501 10.8833C22.216 10.649 22.0845 10.3312 22.0845 10C22.0845 9.66875 22.216 9.35104 22.4501 9.11667Z" fill="white"/>
<path fill-rule="evenodd" clip-rule="evenodd" d="M22.4501 9.11667C22.6845 8.88258 23.0022 8.7511 23.3334 8.7511C23.6647 8.7511 23.9824 8.88258 24.2167 9.11667L34.2168 19.1167C34.4508 19.351 34.5823 19.6687 34.5823 20C34.5823 20.3312 34.4508 20.649 34.2168 20.8833L24.2167 30.8833C24.1023 31.0061 23.9643 31.1046 23.811 31.173C23.6576 31.2413 23.4921 31.278 23.3243 31.281C23.1564 31.2839 22.9897 31.2531 22.8341 31.1902C22.6784 31.1273 22.5371 31.0338 22.4184 30.9151C22.2997 30.7964 22.2061 30.655 22.1432 30.4993C22.0803 30.3437 22.0495 30.177 22.0524 30.0091C22.0554 29.8413 22.0921 29.6758 22.1604 29.5224C22.2288 29.3691 22.3273 29.2311 22.4501 29.1167L30.3167 21.25H6.66675C6.33523 21.25 6.01728 21.1183 5.78286 20.8839C5.54844 20.6495 5.41675 20.3315 5.41675 20C5.41675 19.6685 5.54844 19.3505 5.78286 19.1161C6.01728 18.8817 6.33523 18.75 6.66675 18.75H30.3167L22.4501 10.8833C22.216 10.649 22.0845 10.3312 22.0845 10C22.0845 9.66875 22.216 9.35104 22.4501 9.11667Z" fill="#70C4DE"/>
</g>
<defs>
<clipPath id="clip0_35_367">
<rect width="40" height="40" fill="white"/>
</clipPath>
</defs>
</svg>
