<svg width="56" height="18" viewBox="0 0 56 18" fill="none" xmlns="http://www.w3.org/2000/svg">
<path d="M12.2282 0.0158192V10.409H10.9785V5.39435H7.86215V4.35028H10.9785V0.0158192H12.2282ZM7.92542 1.09153C7.9096 4.69831 5.33107 7.45085 1.32881 8.76384L0.79096 7.76723C4.0339 6.69944 6.28814 4.68249 6.56497 2.13559H1.50282V1.09153H7.92542ZM12.5921 12.7186V13.7627H3.27458V9.34915H4.54011V12.7186H12.5921ZM26.2441 0V14.0949H24.9944V5.6791H20.6124V4.65085H24.9944V0H26.2441ZM16.5944 1.58192V9.6339C18.7379 9.61017 20.652 9.49944 22.7638 9.06441L22.922 10.0927C20.6757 10.5514 18.6983 10.678 16.4203 10.678H15.3446V1.58192H16.5944ZM40.3232 0.0158192V14.0791H39.0734V0.0158192H40.3232ZM28.4746 7.79887C31.3379 7.79887 34.9446 7.79887 38.2192 7.41921L38.2825 8.33672C36.8667 8.54237 35.4192 8.66893 34.0113 8.7322V13.6045H32.7616V8.79548C31.3062 8.84294 29.9062 8.84294 28.6328 8.84294L28.4746 7.79887ZM37.6023 5.06215V6.07458H33.7898V1.02825H37.5073V2.07232H35.0079V5.06215H37.6023ZM33.0305 1.02825V2.07232H30.626V5.06215C31.4011 5.04633 32.2237 4.99096 33.1887 4.7774L33.2836 5.77401C32.0181 6.05876 31.0215 6.07458 30.009 6.07458H29.4079V1.02825H33.0305ZM54.1966 0V14.0633H52.9469V0H54.1966ZM50.0362 1.53446C50.0203 5.58418 48.1379 9.15932 43.4237 11.4215L42.7435 10.409C46.548 8.60565 48.4859 5.90847 48.7706 2.54689H43.3921V1.53446H50.0362Z" fill="white"/>
<path d="M0 16.8316H56V17.9311H0V16.8316Z" fill="white"/>
</svg>
