<svg width="28" height="28" viewBox="0 0 28 28" fill="none" xmlns="http://www.w3.org/2000/svg">
<path d="M14.0001 3.5C20.7667 3.5 26.2512 7.77467 26.2512 13.0492C26.2512 18.3225 20.7667 22.5972 14.0012 22.5972C13.3276 22.596 12.6547 22.5531 11.9864 22.4688L6.84372 25.8323C6.25922 26.1415 6.05272 26.1077 6.29305 25.3505L7.33372 21.0595C3.97372 19.3562 1.75122 16.4045 1.75122 13.0492C1.75122 7.77583 7.23455 3.5 14.0012 3.5M20.8939 12.9033L22.6089 11.242C22.7078 11.1392 22.7631 11.0021 22.7629 10.8594C22.7627 10.7167 22.7072 10.5797 22.608 10.4771C22.5088 10.3746 22.3736 10.3146 22.231 10.3097C22.0885 10.3048 21.9495 10.3555 21.8436 10.451L19.5942 12.628V10.829C19.5942 10.683 19.5362 10.5429 19.4329 10.4396C19.3297 10.3363 19.1896 10.2783 19.0436 10.2783C18.8975 10.2783 18.7574 10.3363 18.6542 10.4396C18.5509 10.5429 18.4929 10.683 18.4929 10.829V13.8122C18.4735 13.8974 18.4735 13.9859 18.4929 14.0712V15.75C18.4929 15.896 18.5509 16.0361 18.6542 16.1394C18.7574 16.2427 18.8975 16.3007 19.0436 16.3007C19.1896 16.3007 19.3297 16.2427 19.4329 16.1394C19.5362 16.0361 19.5942 15.896 19.5942 15.75V14.1598L20.0924 13.678L21.7584 16.0498C21.8 16.109 21.8528 16.1595 21.9139 16.1983C21.975 16.2371 22.0431 16.2634 22.1144 16.2759C22.1857 16.2884 22.2588 16.2867 22.3294 16.2709C22.4 16.2551 22.4668 16.2256 22.5261 16.184C22.5853 16.1424 22.6357 16.0896 22.6745 16.0285C22.7133 15.9674 22.7397 15.8992 22.7521 15.828C22.7646 15.7567 22.7629 15.6836 22.7471 15.613C22.7313 15.5424 22.7018 15.4755 22.6602 15.4163L20.8939 12.9033ZM17.4429 15.148H15.7396V10.8465C15.733 10.705 15.6722 10.5714 15.5698 10.4736C15.4673 10.3758 15.3311 10.3212 15.1895 10.3212C15.0478 10.3212 14.9116 10.3758 14.8092 10.4736C14.7067 10.5714 14.6459 10.705 14.6394 10.8465V15.6987C14.6394 16.002 14.8844 16.2493 15.1889 16.2493H17.4429C17.5889 16.2493 17.729 16.1913 17.8323 16.088C17.9355 15.9848 17.9936 15.8447 17.9936 15.6987C17.9936 15.5526 17.9355 15.4126 17.8323 15.3093C17.729 15.206 17.5889 15.148 17.4429 15.148ZM10.6097 13.8752L11.4217 11.8825L12.1661 13.874L10.6097 13.8752ZM13.5532 14.4433L13.5556 14.4247C13.5552 14.286 13.5022 14.1526 13.4074 14.0513L12.1871 10.7847C12.1359 10.629 12.0385 10.4926 11.9077 10.3938C11.777 10.295 11.6193 10.2384 11.4556 10.2317C11.2908 10.2316 11.1298 10.2814 10.9939 10.3744C10.8579 10.4675 10.7533 10.5995 10.6937 10.7532L8.75472 15.5073C8.69949 15.6425 8.70023 15.7942 8.75679 15.9288C8.81335 16.0635 8.92109 16.1702 9.0563 16.2254C9.19152 16.2806 9.34314 16.2799 9.47781 16.2233C9.61247 16.1668 9.71916 16.059 9.77439 15.9238L10.1617 14.9753H12.5767L12.9244 15.9087C12.9481 15.9784 12.9856 16.0427 13.0346 16.0977C13.0836 16.1528 13.1432 16.1974 13.2098 16.229C13.2763 16.2605 13.3486 16.2784 13.4222 16.2816C13.4958 16.2847 13.5693 16.2731 13.6383 16.2473C13.7074 16.2216 13.7705 16.1822 13.8241 16.1316C13.8776 16.0809 13.9205 16.0201 13.95 15.9526C13.9796 15.8851 13.9954 15.8124 13.9964 15.7387C13.9973 15.665 13.9835 15.5919 13.9557 15.5237L13.5532 14.4433ZM9.67639 10.8523C9.67669 10.78 9.6627 10.7084 9.63521 10.6415C9.60772 10.5746 9.56727 10.5139 9.5162 10.4627C9.46513 10.4115 9.40444 10.3709 9.33762 10.3433C9.27081 10.3157 9.19919 10.3015 9.12689 10.3017H5.34105C5.19501 10.3017 5.05494 10.3597 4.95167 10.463C4.8484 10.5662 4.79039 10.7063 4.79039 10.8523C4.79039 10.9984 4.8484 11.1384 4.95167 11.2417C5.05494 11.345 5.19501 11.403 5.34105 11.403H6.69439V15.7617C6.69439 15.9077 6.7524 16.0478 6.85567 16.151C6.95894 16.2543 7.09901 16.3123 7.24505 16.3123C7.3911 16.3123 7.53116 16.2543 7.63443 16.151C7.7377 16.0478 7.79572 15.9077 7.79572 15.7617V11.403H9.12572C9.19812 11.4033 9.26987 11.3893 9.33682 11.3617C9.40377 11.3341 9.46459 11.2936 9.51579 11.2424C9.56698 11.1912 9.60753 11.1304 9.6351 11.0634C9.66266 10.9965 9.6767 10.9247 9.67639 10.8523Z" fill="#3C1E1E"/>
</svg>
