<svg width="28" height="31" viewBox="0 0 28 31" fill="none" xmlns="http://www.w3.org/2000/svg">
<path d="M10.7964 31H0V0H10.5185C13.4029 0 15.9299 0.264618 18.0998 0.793855C20.2961 1.29663 22.122 2.15664 23.5774 3.37388C25.0328 4.59112 26.1309 6.20529 26.8719 8.21638C27.6128 10.2275 27.9832 12.7413 27.9832 15.758C27.9832 18.8276 27.626 21.3414 26.9115 23.2996C26.2235 25.2578 25.1651 26.819 23.7361 27.9833C22.3337 29.1212 20.5475 29.9018 18.3776 30.3252C16.2343 30.7751 13.7072 31 10.7964 31ZM7.54159 13.5352L6.82711 14.6069C7.77974 14.9244 8.81174 15.2023 9.92314 15.4405C11.0345 15.6521 12.1591 15.8374 13.297 15.9961C14.4613 16.1285 15.6124 16.2343 16.7503 16.3137C17.9146 16.3666 19.0127 16.3931 20.0447 16.3931V15.2023C19.0127 15.2023 17.941 15.1626 16.8296 15.0832C15.7182 15.0038 14.6201 14.898 13.5352 14.7657C12.4767 14.6069 11.4315 14.4217 10.3994 14.21C9.36744 13.9983 8.41482 13.7734 7.54159 13.5352Z" fill="#70C4DE"/>
</svg>
