<svg width="29" height="32" viewBox="0 0 29 32" fill="none" xmlns="http://www.w3.org/2000/svg">
<path d="M12.6584 19.9312C10.588 19.7739 8.83207 19.4988 7.39064 19.1056C5.9492 18.7125 4.75674 18.2539 3.81325 17.7297C2.89598 17.1794 2.17526 16.5897 1.6511 15.9607C1.12694 15.3317 0.746926 14.7027 0.511055 14.0737C0.275183 13.4447 0.13104 12.8419 0.0786238 12.2654C0.0262079 11.6626 0 11.1253 0 10.6536C0 8.97624 0.353807 7.48239 1.06142 6.17199C1.76904 4.83538 2.75183 3.72154 4.00981 2.83046C5.294 1.91318 6.81406 1.21867 8.56999 0.746928C10.3521 0.248976 12.3046 0 14.4275 0C17.2055 0 19.7608 0.340704 22.0933 1.02211C24.452 1.67731 26.5748 2.51597 28.4618 3.53808V13.2088C27.23 12.5012 26.0114 11.9377 24.8058 11.5184C23.6264 11.0991 22.4602 10.7846 21.307 10.5749C20.1539 10.3653 19.0007 10.2342 17.8476 10.1818C16.6945 10.1032 15.5544 10.0639 14.4275 10.0639V11.1646C18.9876 11.1646 22.5257 11.8984 25.0417 13.3661C27.5838 14.8337 28.8549 17.1531 28.8549 20.3243C28.8549 22.1065 28.5404 23.7183 27.9114 25.1597C27.2825 26.6011 26.3652 27.8329 25.1596 28.855C23.954 29.8509 22.4864 30.6241 20.7567 31.1744C19.027 31.7248 17.0483 32 14.8206 32C12.5143 32 10.1556 31.62 7.74444 30.8599C5.33331 30.1261 2.88287 28.855 0.393119 27.0467V18.1622C2.28009 19.0532 4.285 19.7608 6.40784 20.285C8.55689 20.783 10.6404 21.0319 12.6584 21.0319V19.9312Z" fill="#70C4DE"/>
</svg>
