<svg width="28" height="16" viewBox="0 0 28 16" fill="none" xmlns="http://www.w3.org/2000/svg">
<path d="M0 11.0475V9.20329L5.55035 0.602913H8.42305V9.15009H10.1077V11.0475H8.42305V13.4414H6.22419V11.0475H0ZM2.35845 9.15009H6.25966V3.22736H6.1178L2.35845 9.06143V9.15009ZM17.2008 0L13.069 15.3743H11.083L15.2324 0H17.2008ZM23.1235 13.6187C20.2685 13.6187 18.247 12.0937 18.247 10.0013C18.247 8.36985 19.4528 7.0399 20.9956 6.79164V6.72071C19.6479 6.43699 18.7258 5.26662 18.7258 3.86574C18.7258 1.87967 20.5877 0.425586 23.1235 0.425586C25.6415 0.425586 27.5035 1.87967 27.5035 3.86574C27.5035 5.26662 26.5636 6.43699 25.2337 6.72071V6.79164C26.7764 7.0399 28 8.36985 28 10.0013C28 12.0937 25.9607 13.6187 23.1235 13.6187ZM23.1235 11.7923C24.6308 11.7923 25.6238 10.9766 25.6238 9.78847C25.6238 8.58265 24.5598 7.69601 23.1235 7.69601C21.6694 7.69601 20.6054 8.58265 20.6232 9.78847C20.6054 10.9766 21.5985 11.7923 23.1235 11.7923ZM23.1235 5.97593C24.3648 5.97593 25.2514 5.19569 25.2514 4.07853C25.2514 2.99683 24.3825 2.23433 23.1235 2.23433C21.8467 2.23433 20.9778 2.9791 20.9778 4.07853C20.9778 5.19569 21.8645 5.97593 23.1235 5.97593Z" fill="white"/>
</svg>
