<svg width="150" height="39" viewBox="0 0 150 39" fill="none" xmlns="http://www.w3.org/2000/svg">
<path d="M150 38.4145H119.642V0H150V11.544H134.379V13.2633H150V25.1512H134.379V26.8705H150V38.4145Z" fill="#70C4DE"/>
<path d="M81.8654 0H117.038V12.5265H107.803V38.4145H91.1006V12.5265H81.8654V0Z" fill="#70C4DE"/>
<path d="M62.8331 38.3654H45.1487L56.9383 0H73.6402L85.4298 38.3654H67.7454L65.2892 30.4074L62.8331 38.3654ZM59.6892 17.9301L58.805 19.2564C60.6716 20.1406 62.7839 20.7301 65.1419 21.0248C67.4998 21.3196 69.8577 21.4669 72.2156 21.4669V19.9932C69.8577 19.9932 67.598 19.8459 65.4366 19.5511C63.3079 19.2236 61.3921 18.6833 59.6892 17.9301Z" fill="#70C4DE"/>
<path d="M21.4669 10.0703L19.0598 17.1441L20.3862 17.4879L26.3792 0H43.3758V38.3654H30.1126V25.4459L26.1827 38.3654H17.3405L13.4107 25.4459V38.3654H0V0H18.323L21.4669 10.0703Z" fill="#70C4DE"/>
</svg>
