<svg width="151" height="32" viewBox="0 0 151 32" fill="none" xmlns="http://www.w3.org/2000/svg">
<path d="M132.551 0.628064L134.867 6.31991L132.786 11.6977L133.846 11.9725L138.203 0.628064H151L142.011 21.001V31.2855H128.625V21.0795L118.812 0.628064H132.551Z" fill="#70C4DE"/>
<path d="M103.838 31.2855H93.1609V0.628064H103.563C106.416 0.628064 108.915 0.889759 111.061 1.41315C113.233 1.91037 115.038 2.76087 116.478 3.96467C117.917 5.16846 119.003 6.76479 119.736 8.75367C120.469 10.7425 120.835 13.2286 120.835 16.212C120.835 19.2476 120.482 21.7337 119.775 23.6702C119.095 25.6068 118.048 27.1508 116.635 28.3022C115.248 29.4275 113.481 30.1995 111.335 30.6182C109.216 31.0631 106.717 31.2855 103.838 31.2855ZM100.619 14.0137L99.9125 15.0736C100.855 15.3876 101.875 15.6624 102.974 15.8979C104.073 16.1073 105.186 16.2905 106.311 16.4475C107.462 16.5783 108.601 16.683 109.726 16.7615C110.877 16.8139 111.964 16.84 112.984 16.84V15.6624C111.964 15.6624 110.904 15.6231 109.805 15.5446C108.705 15.4661 107.619 15.3614 106.546 15.2306C105.5 15.0736 104.466 14.8904 103.445 14.681C102.425 14.4717 101.483 14.2492 100.619 14.0137Z" fill="#70C4DE"/>
<path d="M60.6912 15.9764V0.628064H74.9012V19.7841H76.2751V0.628064H90.328V15.9764C90.328 18.5934 89.9485 20.8963 89.1896 22.8852C88.4569 24.874 87.4232 26.5358 86.0886 27.8704C84.7801 29.2051 83.223 30.2126 81.4173 30.893C79.6117 31.5734 77.6359 31.9136 75.49 31.9136C73.3703 31.9136 71.3945 31.5734 69.5626 30.893C67.757 30.2388 66.1999 29.2443 64.8914 27.9097C63.5829 26.575 62.5493 24.9133 61.7903 22.9244C61.0576 20.9355 60.6912 18.6195 60.6912 15.9764Z" fill="#70C4DE"/>
<path d="M30.5058 0.628064H58.6117V10.6379H51.2319V31.3248H37.8856V10.6379H30.5058V0.628064Z" fill="#70C4DE"/>
<path d="M12.6398 19.9018C10.5724 19.7448 8.81907 19.47 7.37975 19.0775C5.94044 18.685 4.74973 18.227 3.80764 17.7036C2.89171 17.1541 2.17205 16.5652 1.64867 15.9372C1.12528 15.3091 0.745826 14.681 0.510302 14.053C0.274778 13.4249 0.130847 12.823 0.078508 12.2473C0.0261693 11.6454 0 11.1089 0 10.6379C0 8.96303 0.353286 7.47137 1.05986 6.1629C1.76643 4.82826 2.74778 3.71606 4.00391 2.8263C5.28621 1.91037 6.80403 1.21688 8.55737 0.745828C10.3369 0.248609 12.2865 0 14.4062 0C17.1802 0 19.7317 0.340202 22.0607 1.02061C24.416 1.67484 26.5357 2.51226 28.4199 3.53287V13.1894C27.1899 12.4828 25.9731 11.9202 24.7693 11.5015C23.5917 11.0827 22.4271 10.7687 21.2757 10.5594C20.1242 10.35 18.9728 10.2192 17.8213 10.1668C16.6699 10.0883 15.5315 10.0491 14.4062 10.0491V11.1482C18.9597 11.1482 22.4925 11.8809 25.0048 13.3464C27.5432 14.8119 28.8124 17.1279 28.8124 20.2944C28.8124 22.0739 28.4984 23.6833 27.8703 25.1226C27.2423 26.562 26.3263 27.7919 25.1226 28.8125C23.9188 29.807 22.4533 30.579 20.7261 31.1285C18.9989 31.6781 17.0232 31.9529 14.7988 31.9529C12.4959 31.9529 10.1406 31.5734 7.73304 30.8145C5.32546 30.0818 2.87863 28.8125 0.39254 27.0068V18.1354C2.27673 19.0252 4.27869 19.7317 6.3984 20.2551C8.54429 20.7524 10.6248 21.001 12.6398 21.001V19.9018Z" fill="#70C4DE"/>
</svg>
