<svg width="32" height="32" viewBox="0 0 32 32" fill="none" xmlns="http://www.w3.org/2000/svg">
<path d="M2.66666 16.2721C2.66666 13.2201 2.66666 11.6947 3.35999 10.4307C4.05066 9.16541 5.31599 8.38141 7.84532 6.81075L10.512 5.15608C13.1853 3.49608 14.5227 2.66675 16 2.66675C17.4773 2.66675 18.8133 3.49608 21.488 5.15608L24.1547 6.81075C26.684 8.38141 27.9493 9.16541 28.6413 10.4307C29.3333 11.6961 29.3333 13.2201 29.3333 16.2707V18.3001C29.3333 23.5001 29.3333 26.1014 27.7707 27.7174C26.208 29.3334 23.6947 29.3334 18.6667 29.3334H13.3333C8.30532 29.3334 5.79066 29.3334 4.22932 27.7174C2.66799 26.1014 2.66666 23.5014 2.66666 18.3001V16.2721Z" stroke="#888888" stroke-width="2"/>
<path d="M16 20V24" stroke="#888888" stroke-width="2" stroke-linecap="round"/>
</svg>
