<svg width="32" height="32" viewBox="0 0 32 32" fill="none" xmlns="http://www.w3.org/2000/svg">
<path d="M5.12667 10.5627C4.76425 10.207 4.47591 9.783 4.27829 9.31521C4.08068 8.84742 3.97771 8.3451 3.97534 7.83729C3.97297 7.32947 4.07124 6.82622 4.26448 6.3566C4.45772 5.88698 4.74209 5.46031 5.10118 5.10122C5.46026 4.74214 5.88694 4.45776 6.35655 4.26453C6.82617 4.07129 7.32942 3.97301 7.83724 3.97538C8.34506 3.97775 8.84737 4.08072 9.31516 4.27834C9.78296 4.47595 10.207 4.7643 10.5627 5.12672L26.8747 21.4374C27.5755 22.1625 27.9635 23.134 27.9549 24.1425C27.9463 25.1509 27.5419 26.1157 26.8287 26.8288C26.1156 27.5419 25.1509 27.9463 24.1424 27.9549C23.134 27.9635 22.1625 27.5756 21.4373 26.8747L5.12667 10.5627Z" stroke="#888888" stroke-width="2"/>
<path opacity="0.5" d="M8 13.3333L13.3333 8" stroke="#888888" stroke-width="2" stroke-linecap="round"/>
<path d="M21.4667 3.07606C21.5138 2.95525 21.5963 2.85148 21.7033 2.77832C21.8104 2.70516 21.937 2.66602 22.0667 2.66602C22.1963 2.66602 22.323 2.70516 22.43 2.77832C22.5371 2.85148 22.6196 2.95525 22.6667 3.07606L23.24 4.53606C23.2719 4.61874 23.3206 4.69391 23.383 4.7568C23.4454 4.81968 23.5202 4.86892 23.6027 4.90139L25.0573 5.47739C25.1778 5.52538 25.2811 5.6084 25.3539 5.71572C25.4266 5.82304 25.4655 5.94972 25.4655 6.07939C25.4655 6.20906 25.4266 6.33575 25.3539 6.44307C25.2811 6.55039 25.1778 6.63341 25.0573 6.68139L23.604 7.25739C23.5222 7.29091 23.4479 7.34035 23.3855 7.40284C23.323 7.46533 23.2735 7.53962 23.24 7.62139L22.6667 9.08006C22.6196 9.20086 22.5371 9.30464 22.43 9.3778C22.323 9.45096 22.1963 9.4901 22.0667 9.4901C21.937 9.4901 21.8104 9.45096 21.7033 9.3778C21.5963 9.30464 21.5138 9.20086 21.4667 9.08006L20.8933 7.62006C20.8598 7.53829 20.8104 7.464 20.7479 7.40151C20.6854 7.33902 20.6111 7.28958 20.5293 7.25606L19.076 6.68006C18.9555 6.63208 18.8522 6.54906 18.7795 6.44173C18.7067 6.33441 18.6678 6.20773 18.6678 6.07806C18.6678 5.94839 18.7067 5.8217 18.7795 5.71438C18.8522 5.60706 18.9555 5.52404 19.076 5.47606L20.5293 4.90006C20.6112 4.86639 20.6856 4.81674 20.7481 4.75401C20.8106 4.69129 20.86 4.61674 20.8933 4.53473L21.4667 3.07606Z" stroke="#888888" stroke-width="1.33333"/>
<path opacity="0.5" d="M26.6227 12.1735C26.6698 12.0527 26.7523 11.9489 26.8593 11.8757C26.9664 11.8026 27.093 11.7634 27.2227 11.7634C27.3523 11.7634 27.479 11.8026 27.586 11.8757C27.6931 11.9489 27.7756 12.0527 27.8227 12.1735L28.0307 12.7055C28.0973 12.8721 28.228 13.0041 28.3947 13.0695L28.9253 13.2801C29.0454 13.3283 29.1483 13.4114 29.2207 13.5185C29.2932 13.6257 29.3319 13.7521 29.3319 13.8815C29.3319 14.0108 29.2932 14.1372 29.2207 14.2444C29.1483 14.3516 29.0454 14.4346 28.9253 14.4828L28.3947 14.6935C28.3129 14.727 28.2386 14.7764 28.1761 14.8389C28.1136 14.9014 28.0642 14.9757 28.0307 15.0575L27.8227 15.5908C27.7756 15.7116 27.6931 15.8154 27.586 15.8885C27.479 15.9617 27.3523 16.0008 27.2227 16.0008C27.093 16.0008 26.9664 15.9617 26.8593 15.8885C26.7523 15.8154 26.6698 15.7116 26.6227 15.5908L26.4133 15.0575C26.38 14.9758 26.3307 14.9016 26.2685 14.8391C26.2062 14.7766 26.1322 14.7271 26.0507 14.6935L25.52 14.4828C25.4 14.4346 25.2971 14.3516 25.2246 14.2444C25.1522 14.1372 25.1135 14.0108 25.1135 13.8815C25.1135 13.7521 25.1522 13.6257 25.2246 13.5185C25.2971 13.4114 25.4 13.3283 25.52 13.2801L26.0507 13.0695C26.1322 13.0358 26.2062 12.9863 26.2685 12.9238C26.3307 12.8613 26.38 12.7871 26.4133 12.7055L26.6227 12.1735ZM6.844 20.4095C6.89111 20.2887 6.97359 20.1849 7.08064 20.1117C7.18769 20.0386 7.31434 19.9994 7.44401 19.9994C7.57367 19.9994 7.70032 20.0386 7.80737 20.1117C7.91442 20.1849 7.9969 20.2887 8.04401 20.4095L8.25334 20.9428C8.28536 21.0252 8.33412 21.1001 8.39654 21.1628C8.45896 21.2254 8.53369 21.2745 8.61601 21.3068L9.14667 21.5161C9.26714 21.5641 9.37043 21.6471 9.44321 21.7545C9.51598 21.8618 9.55488 21.9885 9.55488 22.1181C9.55488 22.2478 9.51598 22.3745 9.44321 22.4818C9.37043 22.5891 9.26714 22.6722 9.14667 22.7201L8.61601 22.9308C8.53369 22.9631 8.45896 23.0122 8.39654 23.0748C8.33412 23.1375 8.28536 23.2124 8.25334 23.2948L8.04401 23.8281C7.9969 23.9489 7.91442 24.0527 7.80737 24.1259C7.70032 24.199 7.57367 24.2382 7.44401 24.2382C7.31434 24.2382 7.18769 24.199 7.08064 24.1259C6.97359 24.0527 6.89111 23.9489 6.844 23.8281L6.63467 23.2948C6.60265 23.2124 6.55389 23.1375 6.49147 23.0748C6.42905 23.0122 6.35432 22.9631 6.27201 22.9308L5.74134 22.7201C5.62088 22.6722 5.51758 22.5891 5.44481 22.4818C5.37203 22.3745 5.33313 22.2478 5.33313 22.1181C5.33313 21.9885 5.37203 21.8618 5.44481 21.7545C5.51758 21.6471 5.62088 21.5641 5.74134 21.5161L6.27201 21.3068C6.35445 21.2743 6.42926 21.2251 6.49169 21.1622C6.55412 21.0993 6.60281 21.0242 6.63467 20.9415L6.844 20.4095Z" stroke="#888888" stroke-width="1.33333"/>
</svg>
