<svg width="32" height="32" viewBox="0 0 32 32" fill="none" xmlns="http://www.w3.org/2000/svg">
<path d="M19.3333 26.0001H12.6667M19.3333 26.0001C19.3333 25.0494 19.3333 24.5734 19.384 24.2574C19.548 23.2401 19.576 23.1748 20.2253 22.3748C20.4267 22.1268 21.1733 21.4574 22.668 20.1188C23.7176 19.1819 24.5571 18.0336 25.1313 16.7493C25.7056 15.4649 26.0016 14.0736 26 12.6668C26.0008 11.5314 25.8083 10.4042 25.4307 9.33344M19.3333 26.0001C19.3333 27.2468 19.3333 27.8694 19.0653 28.3334C18.8898 28.6375 18.6374 28.8899 18.3333 29.0654C17.8693 29.3334 17.2467 29.3334 16 29.3334C14.7533 29.3334 14.1307 29.3334 13.6667 29.0654C13.3627 28.8899 13.1102 28.6375 12.9347 28.3334C12.6667 27.8694 12.6667 27.2468 12.6667 26.0001M12.6667 26.0001C12.6667 25.0494 12.6667 24.5734 12.616 24.2574C12.452 23.2401 12.424 23.1748 11.7747 22.3748C11.5733 22.1268 10.8253 21.4574 9.33201 20.1188C7.48726 18.4702 6.31912 16.1963 6.05336 13.7365C5.78761 11.2768 6.44312 8.80584 7.89319 6.80128C9.34326 4.79672 11.4849 3.40086 13.9043 2.88348C16.3237 2.3661 18.8489 2.76394 20.992 4.00011" stroke="#888888" stroke-width="2" stroke-linecap="round"/>
<path d="M17.048 11.3335L14.1907 15.3335H18.1907L15.3333 19.3335" stroke="#888888" stroke-width="2" stroke-linecap="round" stroke-linejoin="round"/>
</svg>
