<svg width="32" height="32" viewBox="0 0 32 32" fill="none" xmlns="http://www.w3.org/2000/svg">
<path d="M17.3333 21.3333C17.3333 21.687 17.1929 22.0261 16.9428 22.2761C16.6928 22.5262 16.3536 22.6667 16 22.6667C15.6464 22.6667 15.3072 22.5262 15.0572 22.2761C14.8071 22.0261 14.6667 21.687 14.6667 21.3333C14.6667 20.9797 14.8071 20.6406 15.0572 20.3905C15.3072 20.1405 15.6464 20 16 20C16.3536 20 16.6928 20.1405 16.9428 20.3905C17.1929 20.6406 17.3333 20.9797 17.3333 21.3333Z" fill="#888888"/>
<path fill-rule="evenodd" clip-rule="evenodd" d="M27.8933 1.87323C28.0505 1.9937 28.1684 2.15811 28.232 2.34563C28.2956 2.53315 28.3021 2.73534 28.2507 2.92656L26.924 7.87856L29.452 6.4199C29.5658 6.3532 29.6916 6.30966 29.8223 6.2918C29.9529 6.27393 30.0859 6.28209 30.2134 6.3158C30.3409 6.34951 30.4604 6.4081 30.5652 6.48821C30.6699 6.56832 30.7578 6.66836 30.8238 6.78257C30.8897 6.89678 30.9324 7.0229 30.9494 7.15368C30.9664 7.28446 30.9574 7.41732 30.9228 7.54459C30.8883 7.67186 30.8289 7.79104 30.7481 7.89527C30.6673 7.9995 30.5667 8.08671 30.452 8.1519L25.8333 10.8186C25.662 10.9178 25.4651 10.9639 25.2675 10.951C25.07 10.9382 24.8806 10.867 24.7236 10.7465C24.5665 10.626 24.4487 10.4616 24.3852 10.2741C24.3217 10.0866 24.3152 9.8844 24.3667 9.69323L25.6947 4.7399L23.1667 6.1999C22.9368 6.3325 22.6637 6.36837 22.4074 6.29961C22.1511 6.23084 21.9326 6.06308 21.8 5.83323C21.6674 5.60337 21.6315 5.33026 21.7003 5.07396C21.7691 4.81766 21.9368 4.59917 22.1667 4.46656L26.7853 1.7999C26.9568 1.70097 27.1537 1.65514 27.3511 1.66819C27.5486 1.68125 27.7364 1.7526 27.8933 1.87323ZM16 3.66656C13.5607 3.66656 11.1762 4.3899 9.14797 5.7451C7.11977 7.10031 5.53897 9.02651 4.60549 11.2801C3.67201 13.5338 3.42777 16.0136 3.90365 18.406C4.37954 20.7984 5.55417 22.996 7.27902 24.7209C9.00387 26.4457 11.2015 27.6204 13.5939 28.0962C15.9863 28.5721 18.4661 28.3279 20.7198 27.3944C22.9734 26.4609 24.8996 24.8801 26.2548 22.8519C27.61 20.8237 28.3333 18.4392 28.3333 15.9999C28.3333 15.7347 28.4387 15.4803 28.6262 15.2928C28.8138 15.1053 29.0681 14.9999 29.3333 14.9999C29.5986 14.9999 29.8529 15.1053 30.0404 15.2928C30.228 15.4803 30.3333 15.7347 30.3333 15.9999C30.3333 23.9159 23.916 30.3332 16 30.3332C8.08401 30.3332 1.66667 23.9159 1.66667 15.9999C1.66667 8.0839 8.08401 1.66656 16 1.66656C16.2652 1.66656 16.5196 1.77192 16.7071 1.95946C16.8946 2.14699 17 2.40135 17 2.66656C17 2.93178 16.8946 3.18613 16.7071 3.37367C16.5196 3.56121 16.2652 3.66656 16 3.66656ZM17.864 6.83323C17.9296 6.71936 18.017 6.61954 18.1212 6.53948C18.2254 6.45942 18.3444 6.40068 18.4713 6.36663C18.5983 6.33257 18.7307 6.32387 18.861 6.34102C18.9912 6.35817 19.1169 6.40083 19.2307 6.46656L21.54 7.7999C21.7113 7.89879 21.8494 8.04627 21.9369 8.22367C22.0244 8.40107 22.0573 8.60043 22.0314 8.79653C22.0056 8.99263 21.9222 9.17667 21.7918 9.32536C21.6613 9.47406 21.4897 9.58073 21.2987 9.6319L19.988 9.9839L20.2067 10.1106C20.4345 10.2441 20.6002 10.4623 20.6677 10.7176C20.7352 10.9729 20.699 11.2446 20.5669 11.4733C20.4349 11.7019 20.2178 11.8691 19.9629 11.9383C19.7081 12.0075 19.4362 11.9731 19.2067 11.8426L16.8973 10.5092C16.726 10.4104 16.5879 10.2631 16.5003 10.0858C16.4127 9.90844 16.3797 9.70914 16.4054 9.51306C16.4311 9.31698 16.5143 9.13291 16.6446 8.98414C16.7749 8.83536 16.9464 8.72856 17.1373 8.67723L18.4493 8.32523L18.2307 8.1999C18.1168 8.13429 18.017 8.04688 17.9369 7.94267C17.8569 7.83846 17.7981 7.71949 17.7641 7.59256C17.73 7.46563 17.7213 7.33324 17.7385 7.20295C17.7556 7.07266 17.7983 6.94702 17.864 6.83323ZM7.99734 13.9226C8.095 13.8346 8.20904 13.7667 8.33296 13.7228C8.45687 13.6789 8.58822 13.6599 8.71949 13.6669C8.85076 13.6738 8.97937 13.7065 9.09797 13.7632C9.21657 13.8199 9.32283 13.8994 9.41067 13.9972C10.0293 14.6866 10.6973 14.9999 11.3333 14.9999C11.9693 14.9999 12.6373 14.6866 13.256 13.9986C13.3431 13.8985 13.4492 13.8168 13.5681 13.7581C13.6871 13.6995 13.8165 13.6651 13.9489 13.6569C14.0813 13.6488 14.2139 13.667 14.3392 13.7106C14.4644 13.7543 14.5798 13.8223 14.6784 13.9109C14.7771 13.9996 14.8572 14.1069 14.914 14.2267C14.9708 14.3466 15.0032 14.4765 15.0093 14.609C15.0154 14.7415 14.9951 14.8739 14.9495 14.9984C14.904 15.123 14.8341 15.2373 14.744 15.3346C13.8507 16.3266 12.68 16.9999 11.3333 16.9999C9.98667 16.9999 8.81467 16.3266 7.92267 15.3359C7.83468 15.2382 7.7668 15.1242 7.72293 15.0003C7.67905 14.8764 7.66004 14.745 7.66698 14.6137C7.67391 14.4825 7.70666 14.3539 7.76334 14.2353C7.82003 14.1167 7.89955 14.0104 7.99734 13.9226ZM17.3307 13.9226C17.4283 13.8346 17.5424 13.7667 17.6663 13.7228C17.7902 13.6789 17.9216 13.6599 18.0528 13.6669C18.1841 13.6738 18.3127 13.7065 18.4313 13.7632C18.5499 13.8199 18.6562 13.8994 18.744 13.9972C19.364 14.6866 20.0307 14.9999 20.6667 14.9999C21.3027 14.9999 21.9693 14.6866 22.5893 13.9986C22.6764 13.8985 22.7825 13.8168 22.9015 13.7581C23.0204 13.6995 23.1498 13.6651 23.2822 13.6569C23.4146 13.6488 23.5473 13.667 23.6725 13.7106C23.7978 13.7543 23.9131 13.8223 24.0118 13.9109C24.1105 13.9996 24.1905 14.1069 24.2473 14.2267C24.3041 14.3466 24.3365 14.4765 24.3426 14.609C24.3487 14.7415 24.3284 14.8739 24.2829 14.9984C24.2373 15.123 24.1675 15.2373 24.0773 15.3346C23.184 16.3266 22.0133 16.9999 20.6667 16.9999C19.32 16.9999 18.148 16.3266 17.256 15.3359C17.168 15.2382 17.1001 15.1242 17.0563 15.0003C17.0124 14.8764 16.9934 14.745 17.0003 14.6137C17.0072 14.4825 17.04 14.3539 17.0967 14.2353C17.1534 14.1167 17.2329 14.0104 17.3307 13.9226Z" fill="#888888"/>
</svg>
