<svg width="32" height="32" viewBox="0 0 32 32" fill="none" xmlns="http://www.w3.org/2000/svg">
<path fill-rule="evenodd" clip-rule="evenodd" d="M16.0667 1.66675H15.9333C15.048 1.66675 14.284 1.66675 13.672 1.74941C13.0173 1.83741 12.388 2.03608 11.8787 2.54541C11.3693 3.05475 11.1707 3.68408 11.0827 4.33875C11 4.95075 11 5.71475 11 6.60142V9.83741C10.6785 9.7254 10.3405 9.66773 10 9.66675H6C5.60603 9.66675 5.21592 9.74435 4.85195 9.89511C4.48797 10.0459 4.15725 10.2669 3.87868 10.5454C3.6001 10.824 3.37912 11.1547 3.22836 11.5187C3.07759 11.8827 3 12.2728 3 12.6667V28.3334H2.66666C2.40145 28.3334 2.14709 28.4388 1.95956 28.6263C1.77202 28.8138 1.66666 29.0682 1.66666 29.3334C1.66666 29.5986 1.77202 29.853 1.95956 30.0405C2.14709 30.2281 2.40145 30.3334 2.66666 30.3334H29.3333C29.5985 30.3334 29.8529 30.2281 30.0404 30.0405C30.228 29.853 30.3333 29.5986 30.3333 29.3334C30.3333 29.0682 30.228 28.8138 30.0404 28.6263C29.8529 28.4388 29.5985 28.3334 29.3333 28.3334H29V19.3334C29 18.5378 28.6839 17.7747 28.1213 17.2121C27.5587 16.6495 26.7956 16.3334 26 16.3334H22C21.648 16.3352 21.3147 16.3921 21 16.5041V6.60142C21 5.71475 21 4.95075 20.9173 4.33875C20.8293 3.68408 20.6307 3.05475 20.1213 2.54541C19.612 2.03608 18.984 1.83741 18.328 1.74941C17.716 1.66675 16.952 1.66675 16.0653 1.66675M26.9987 28.3334V19.3334C26.9987 19.0682 26.8933 18.8138 26.7058 18.6263C26.5182 18.4388 26.2639 18.3334 25.9987 18.3334H21.9987C21.7334 18.3334 21.4791 18.4388 21.2916 18.6263C21.104 18.8138 20.9987 19.0682 20.9987 19.3334V28.3334H26.9987ZM18.9987 28.3334V6.66675C18.9987 5.69608 18.996 5.06675 18.9347 4.60541C18.876 4.17208 18.7813 4.03608 18.7053 3.96008C18.6293 3.88408 18.4933 3.78941 18.06 3.73075C17.5973 3.66941 16.9693 3.66675 15.9987 3.66675C15.028 3.66675 14.3987 3.66941 13.9373 3.73075C13.504 3.78941 13.368 3.88408 13.292 3.96008C13.216 4.03608 13.1213 4.17208 13.0627 4.60541C13.0013 5.06808 12.9987 5.69608 12.9987 6.66675V28.3334H18.9987ZM10.9987 28.3334V12.6667C10.9987 12.4015 10.8933 12.1472 10.7058 11.9596C10.5182 11.7721 10.2639 11.6667 9.99866 11.6667H5.99866C5.73345 11.6667 5.47909 11.7721 5.29156 11.9596C5.10402 12.1472 4.99866 12.4015 4.99866 12.6667V28.3334H10.9987Z" fill="#888888"/>
</svg>
